<svg id="Layer_1" data-name="Layer 1" xmlns="http://www.w3.org/2000/svg" viewBox="0 0 833.78 170.08"><defs><style>.cls-1{fill:#231f20;}.cls-2{fill:#7cb842;}</style></defs><title>Artboard 1</title><path class="cls-1" d="M663.82,97.49l-9.07-16.26L628.23,39c-2-3.2-8.6-5.88-14.41-5.88h-23.5c-5.8,0-12.39,2.68-14.39,5.88,0,0-26.52,42.26-26.48,42.23S540.63,97,540.35,97.49c0,.07,0,.14,0,.24a7.4,7.4,0,0,0,1.37,4.52c1.32,1.54,4.3,2,5.3,2h5.44c5.8,0,12.37-2.7,14.37-5.91,0,0,26.49-42.36,26.46-42.3l.9-1.72.25-.17a4.71,4.71,0,0,1,3.67-.87A5.5,5.5,0,0,1,601.55,56l8.56,13.67H598.59a5.92,5.92,0,0,0-4.32,2.23l-22.7,32.2c-.88,1.24-.62,1.49.58.57l26.26-20.42a9.4,9.4,0,0,1,4.88-1.68h14.9l9.88,15.81c2,3.2,8.59,5.91,14.37,5.91h14.68c1,0,4-.49,5.32-2a7.23,7.23,0,0,0,1.38-4.52Z"/><path class="cls-1" d="M559.53,35.8c-1-1.57-3.36-2.53-6.32-2.53h-9.47c-5.74,0-12.26,3.48-14.23,7.63,0,0-20.26,38.62-20.25,38.57-1.36,2.89-3.38,4.6-5.52,4.74a5.11,5.11,0,0,1-4.6-2.77L472.63,39.16c-2-3.18-8.58-5.88-14.37-5.88H438c-5.74,0-12.24,3.48-14.2,7.61l-27.14,57a4.05,4.05,0,0,0,0,4c1,1.57,3.36,2.51,6.34,2.51h6.2c5.74,0,12.24-3.47,14.2-7.6l18.41-38.7c1.37-2.89,3.38-4.62,5.53-4.75a5.15,5.15,0,0,1,4.59,2.79L478.4,98.58c2,3.19,8.58,5.88,14.37,5.88H513c5.74,0,12.25-3.47,14.21-7.6v0l0,0s32.32-57,32.27-57A4,4,0,0,0,559.53,35.8Z"/><path class="cls-1" d="M371,45.43l2.85-6.21a6.66,6.66,0,0,0,.68-2.81,3.62,3.62,0,0,0-.51-1.93A3.8,3.8,0,0,0,370.66,33H284.11c-3.9,0-8.73,3.34-10.55,7.26l-2.85,6.21c-.85,1.84-.91,3.57-.16,4.73a3.8,3.8,0,0,0,3.35,1.52h33.28L285.66,97.93a4.06,4.06,0,0,0,0,4c1,1.57,3.37,2.51,6.33,2.51h6.19c5.75,0,12.28-3.47,14.23-7.6,0,0,18.3-38.5,18.38-38.64s1.78-5.52,1.78-5.52h27.91C364.35,52.7,369.18,49.36,371,45.43Z"/><path class="cls-1" d="M257.19,33.27H251c-5.74,0-12.25,3.48-14.19,7.61l-18.37,38.6c-1.38,2.89-3.39,4.6-5.53,4.74a5.15,5.15,0,0,1-4.62-2.77L181.75,39.17c-2-3.19-8.61-5.89-14.4-5.89H141.16c-5.75,0-12.25,3.48-14.21,7.61l-7.73,16.25L133.9,81.42C135.54,78,145,58.16,145,58.16c1.36-2.89,3.36-4.62,5.52-4.75a5.18,5.18,0,0,1,4.61,2.79L181.6,98.57c2,3.2,8.59,5.88,14.37,5.88h26.2c5.73,0,12.25-3.47,14.2-7.6l27.15-57a4,4,0,0,0,0-4C262.53,34.23,260.16,33.27,257.19,33.27Z"/><path class="cls-1" d="M408.6,43.27l1.61-3.36a4,4,0,0,0,0-4c-1-1.59-3.36-2.53-6.34-2.53h-5.52A18.53,18.53,0,0,0,390,35.55h-.05c-.42.22-.8.48-1.21.74a.68.68,0,0,0-.19.11c-.32.21-.63.43-.9.65s-.56.43-.81.64l-.47.4c-.08.09-.19.17-.26.25h0a9.26,9.26,0,0,0-1.86,2.53l-27.14,57a4,4,0,0,0,0,4c1,1.57,3.36,2.51,6.33,2.51h6.2c5.76,0,12.25-3.47,14.21-7.6l18.4-38.68Z"/><path class="cls-1" d="M121.82,81.38,95.3,39.1c-2-3.18-8.6-5.87-14.42-5.87h-22c-5.79,0-12.39,2.7-14.41,5.87L18,81.33,8.92,97.63v.23a7.41,7.41,0,0,0,1.36,4.53c1.33,1.52,4.32,2,5.31,2H27.8c5.78,0,12.37-2.7,14.37-5.89,0,0,4.61-7.39,10-16H64.57a9.44,9.44,0,0,1,4.9,1.67l26.27,20.42c1.19.92,1.45.68.58-.57L73.6,71.89a6,6,0,0,0-4.31-2.23H60.21c4.69-7.48,8.43-13.47,8.43-13.43l.9-1.75.25-.16a4.71,4.71,0,0,1,3.67-.85,5.51,5.51,0,0,1,3.46,2.67s26.51,42.39,26.51,42.4c2,3.17,8.57,5.87,14.38,5.87h6.38c1,0,4-.49,5.34-2a7.37,7.37,0,0,0,1.36-4.53v-.23Z"/><path class="cls-2" d="M712.49,15.67c5.23,6.83,9.29,23.81,2.46,29s-22-3.28-27.24-10.12a15.59,15.59,0,1,1,24.79-18.92Z"/><path class="cls-2" d="M734.47,59.23a8,8,0,1,1-8.46-7.5A8,8,0,0,1,734.47,59.23Z"/><path class="cls-2" d="M701.26,137.5c3.19-8,15.67-20.21,23.66-17s8.48,20.57,5.3,28.57a15.58,15.58,0,0,1-29-11.55Z"/><path class="cls-2" d="M727.36,96.27a8,8,0,1,1-2.11,11.13A8,8,0,0,1,727.36,96.27Z"/><path class="cls-2" d="M811.56,84.92c-8.51,1.34-25.39-3.18-26.72-11.71s13.4-17.78,21.91-19.11a15.59,15.59,0,0,1,4.81,30.81Z"/><path class="cls-2" d="M762.78,83.47a8,8,0,1,1,10.66-3.86A8,8,0,0,1,762.78,83.47Z"/><path class="cls-2" d="M23.33,139l.77-3.61H40.49L39.72,139H33.83l-3.36,16H26.14l3.36-16Z"/><path class="cls-2" d="M80.25,135.41,79.51,139H68.84L68,143.2h9.87l-.72,3.36H67.24l-1,4.83H77.06L76.29,155H61.16l4.1-19.62Z"/><path class="cls-2" d="M110.53,135.41l-3.36,16h9.49l-.77,3.62h-13.8l4.09-19.62Z"/><path class="cls-2" d="M159.52,135.41l-.75,3.61H148.12l-.88,4.19h9.86l-.71,3.36h-9.88l-1,4.83h10.82l-.77,3.62H140.44l4.1-19.62Z"/><path class="cls-2" d="M185.65,155l-2.25-19.62h4.32L189,150.12h.06l7.45-14.72H201L190.52,155Z"/><path class="cls-2" d="M229.71,135.41,225.57,155h-4.31l4.12-19.62Z"/><path class="cls-2" d="M256.52,150.24a2.7,2.7,0,0,0,.87,1.11,3.83,3.83,0,0,0,1.38.59,7.58,7.58,0,0,0,1.73.19,5.38,5.38,0,0,0,1.32-.17,4,4,0,0,0,1.2-.5,2.72,2.72,0,0,0,.88-.84,2.24,2.24,0,0,0,.35-1.28,1.56,1.56,0,0,0-.44-1.16,3.68,3.68,0,0,0-1.14-.78,8.85,8.85,0,0,0-1.6-.59c-.59-.16-1.19-.33-1.8-.53a16.73,16.73,0,0,1-1.81-.66,6,6,0,0,1-1.58-1,4.53,4.53,0,0,1-1.13-1.49,5.05,5.05,0,0,1-.41-2.14,5.41,5.41,0,0,1,.67-2.8,5.79,5.79,0,0,1,1.79-1.9,8,8,0,0,1,2.47-1.06,11.71,11.71,0,0,1,2.82-.34,11.24,11.24,0,0,1,2.84.34,6.25,6.25,0,0,1,2.33,1.12,5.5,5.5,0,0,1,1.6,2,6.42,6.42,0,0,1,.59,2.9h-4.09a3.15,3.15,0,0,0-.23-1.38,2.46,2.46,0,0,0-.75-.94,3.26,3.26,0,0,0-1.14-.5,5.94,5.94,0,0,0-1.39-.15,6.11,6.11,0,0,0-1.22.12,3.59,3.59,0,0,0-1.11.41,2.45,2.45,0,0,0-.8.77,2.11,2.11,0,0,0-.3,1.15,1.57,1.57,0,0,0,.53,1.19,4.27,4.27,0,0,0,1.3.8,9,9,0,0,0,1.55.5l1.29.28a15.35,15.35,0,0,1,2.11.71,5.5,5.5,0,0,1,1.67,1,4.36,4.36,0,0,1,1.08,1.53,5.53,5.53,0,0,1,.39,2.23,5.91,5.91,0,0,1-.72,3,6.16,6.16,0,0,1-1.88,2,7.59,7.59,0,0,1-2.56,1.11,12.17,12.17,0,0,1-2.83.35c-2.74,0-4.78-.56-6.14-1.69s-2-2.89-2-5.28h4.08A4,4,0,0,0,256.52,150.24Z"/><path class="cls-2" d="M300.82,135.41,296.67,155h-4.31l4.11-19.62Z"/><path class="cls-2" d="M324.9,142.26a11.71,11.71,0,0,1,2.14-3.77,10.16,10.16,0,0,1,7.86-3.55,11.35,11.35,0,0,1,3.61.55,7,7,0,0,1,2.74,1.6,7.08,7.08,0,0,1,1.75,2.63,9.64,9.64,0,0,1,.63,3.63,14.9,14.9,0,0,1-.72,4.61,12.05,12.05,0,0,1-2.08,3.87,9.84,9.84,0,0,1-3.37,2.65,10.12,10.12,0,0,1-4.58,1,8.83,8.83,0,0,1-6.46-2.23,8.59,8.59,0,0,1-2.27-6.42A13.83,13.83,0,0,1,324.9,142.26Zm3.84,6.45a4.77,4.77,0,0,0,.81,1.61,3.9,3.9,0,0,0,1.37,1.12,4.64,4.64,0,0,0,2,.41,4.92,4.92,0,0,0,2.78-.76,6.42,6.42,0,0,0,2-1.95,9.2,9.2,0,0,0,1.2-2.64,10.65,10.65,0,0,0,.39-2.86,8,8,0,0,0-.23-2,4.44,4.44,0,0,0-.76-1.61A3.83,3.83,0,0,0,337,139a4.57,4.57,0,0,0-2-.41,5.36,5.36,0,0,0-2.88.75,6.44,6.44,0,0,0-2,1.95,8.53,8.53,0,0,0-1.17,2.67,10.88,10.88,0,0,0-.39,2.87A7.19,7.19,0,0,0,328.74,148.7Z"/><path class="cls-2" d="M375.63,135.41l5.32,14h0l2.81-14h4L383.62,155H379.3l-5.38-13.78h-.06L371.05,155h-4l4.13-19.62Z"/><path class="cls-1" d="M421.21,135.41c2.77,0,4.85.66,6.24,2a7.45,7.45,0,0,1,2.09,5.66,15.27,15.27,0,0,1-.71,4.76,10.89,10.89,0,0,1-2.13,3.8,9.73,9.73,0,0,1-3.55,2.51,12.46,12.46,0,0,1-5,.92H410l4.12-19.62Zm-2.84,16a6.88,6.88,0,0,0,2.92-.6,6.24,6.24,0,0,0,2.14-1.66,7.32,7.32,0,0,0,1.33-2.42,9.48,9.48,0,0,0,.45-2.94,7.38,7.38,0,0,0-.23-1.94,3.79,3.79,0,0,0-.75-1.5,3.41,3.41,0,0,0-1.34-1,4.78,4.78,0,0,0-2-.35h-3.24L415,151.4Z"/><path class="cls-1" d="M461.37,135.41,457.23,155h-4.31L457,135.41Z"/><path class="cls-1" d="M498.34,153a5.4,5.4,0,0,1-2.26,1.88,6.5,6.5,0,0,1-2.69.57,8.82,8.82,0,0,1-6.45-2.23c-1.51-1.48-2.26-3.62-2.26-6.42a13.72,13.72,0,0,1,.74-4.54,11.8,11.8,0,0,1,2.13-3.77,10.27,10.27,0,0,1,3.39-2.58,9.94,9.94,0,0,1,4.47-1,11.93,11.93,0,0,1,3.24.42,7.76,7.76,0,0,1,2.65,1.25,6.09,6.09,0,0,1,1.79,2.15,6.91,6.91,0,0,1,.66,3.12h-4.32a3.14,3.14,0,0,0-1.12-2.57,4.77,4.77,0,0,0-2.86-.75,5.36,5.36,0,0,0-2.87.75,6.52,6.52,0,0,0-2,1.95,9,9,0,0,0-1.17,2.67,10.92,10.92,0,0,0-.38,2.87,6.54,6.54,0,0,0,.26,1.92,4.79,4.79,0,0,0,.79,1.61,3.85,3.85,0,0,0,1.38,1.12,4.57,4.57,0,0,0,2,.41,6.56,6.56,0,0,0,2.13-.32,4.9,4.9,0,0,0,1.53-.87,4.61,4.61,0,0,0,1.08-1.32,9.73,9.73,0,0,0,.7-1.72h-4.53l.68-3.23h8.34L501.13,155H498.4v-2Z"/><path class="cls-1" d="M535.47,135.41,531.32,155H527l4.12-19.62Z"/><path class="cls-1" d="M559.24,139l.76-3.61h16.38l-.77,3.61h-5.87l-3.35,16H562l3.35-16Z"/><path class="cls-1" d="M608.52,135.41,611.8,155h-4.29l-.63-4.38h-7.34L597.06,155h-4.53l11.57-19.62Zm-2,12-1-7.8h-.06l-4.24,7.8Z"/><path class="cls-1" d="M644.39,135.41l-3.35,16h9.46l-.75,3.62H635.94l4.1-19.62Z"/></svg>